<svg width="64" height="64" viewBox="0 0 64 64" fill="none" xmlns="http://www.w3.org/2000/svg">
    <path d="M32 2C26.1652 2 20.5695 4.31785 16.4437 8.44365C12.3179 12.5695 10 18.1652 10 24C10 35.62 29.6 60.2 30.44 61.26C30.6274 61.4936 30.8649 61.6821 31.1349 61.8116C31.4049 61.9412 31.7005 62.0084 32 62.0084C32.2995 62.0084 32.5951 61.9412 32.8651 61.8116C33.1351 61.6821 33.3726 61.4936 33.56 61.26C34.4 60.2 54 35.62 54 24C54 18.1652 51.6822 12.5695 47.5564 8.44365C43.4305 4.31785 37.8348 2 32 2ZM32 30C30.4177 30 28.871 29.5308 27.5554 28.6518C26.2398 27.7727 25.2145 26.5233 24.609 25.0615C24.0035 23.5997 23.845 21.9911 24.1537 20.4393C24.4624 18.8874 25.2243 17.462 26.3431 16.3431C27.462 15.2243 28.8874 14.4624 30.4393 14.1537C31.9911 13.845 33.5997 14.0035 35.0615 14.609C36.5233 15.2145 37.7727 16.2398 38.6518 17.5554C39.5308 18.871 40 20.4177 40 22C40 24.1217 39.1571 26.1566 37.6569 27.6569C36.1566 29.1571 34.1217 30 32 30Z" fill="white"/>
</svg>
